<svg xmlns:xlink="http://www.w3.org/1999/xlink" xmlns="http://www.w3.org/2000/svg" width="2050" height="1818" viewBox="0 0 2050 1818" version="1.1"><path d="M 961.369 67.344 C 961.714 70.730, 962.676 83.400, 963.507 95.500 C 964.338 107.600, 965.243 119.300, 965.519 121.500 C 965.795 123.700, 966.691 134.950, 967.510 146.500 C 968.329 158.050, 969.670 176.725, 970.489 188 C 971.308 199.275, 972.412 213.450, 972.941 219.500 C 973.470 225.550, 974.167 234.550, 974.490 239.500 C 974.813 244.450, 975.719 256.825, 976.504 267 C 977.288 277.175, 978.616 294.500, 979.454 305.500 C 980.293 316.500, 981.666 334.500, 982.507 345.500 C 983.347 356.500, 984.685 374.275, 985.480 385 C 986.276 395.725, 987.604 413.950, 988.432 425.500 C 989.260 437.050, 990.184 448.750, 990.485 451.500 C 990.787 454.250, 991.688 465.725, 992.487 477 C 993.287 488.275, 994.863 509.650, 995.991 524.500 C 997.119 539.350, 998.693 560.500, 999.489 571.500 C 1000.285 582.500, 1001.172 593.750, 1001.459 596.500 C 1001.745 599.250, 1002.442 608.250, 1003.006 616.500 C 1003.571 624.750, 1004.693 640.050, 1005.501 650.500 C 1006.309 660.950, 1007.443 675.575, 1008.021 683 C 1008.600 690.425, 1009.724 705.725, 1010.520 717 C 1011.315 728.275, 1012.214 739.750, 1012.516 742.500 C 1012.819 745.250, 1013.715 756.725, 1014.509 768 C 1015.302 779.275, 1016.626 797.725, 1017.451 809 C 1018.276 820.275, 1019.198 831.975, 1019.500 835 C 1019.801 838.025, 1020.729 849.950, 1021.562 861.500 C 1022.394 873.050, 1023.350 886.212, 1023.686 890.750 C 1024.022 895.288, 1024.613 899, 1025 899 C 1025.387 899, 1025.978 895.288, 1026.314 890.750 C 1026.650 886.212, 1027.606 873.050, 1028.438 861.500 C 1029.271 849.950, 1030.199 838.025, 1030.500 835 C 1030.802 831.975, 1031.724 820.275, 1032.549 809 C 1033.374 797.725, 1034.698 779.275, 1035.491 768 C 1036.285 756.725, 1037.181 745.250, 1037.484 742.500 C 1037.786 739.750, 1038.685 728.275, 1039.480 717 C 1040.276 705.725, 1041.400 690.425, 1041.979 683 C 1042.557 675.575, 1043.691 660.950, 1044.499 650.500 C 1045.307 640.050, 1046.429 624.750, 1046.994 616.500 C 1047.558 608.250, 1048.255 599.250, 1048.541 596.500 C 1048.828 593.750, 1049.715 582.500, 1050.511 571.500 C 1051.307 560.500, 1052.881 539.350, 1054.009 524.500 C 1055.137 509.650, 1056.713 488.275, 1057.513 477 C 1058.312 465.725, 1059.213 454.250, 1059.515 451.500 C 1059.816 448.750, 1060.707 437.500, 1061.495 426.500 C 1062.282 415.500, 1063.604 397.050, 1064.432 385.500 C 1065.260 373.950, 1066.172 362.250, 1066.459 359.500 C 1066.746 356.750, 1067.441 347.750, 1068.004 339.500 C 1068.567 331.250, 1069.680 316.175, 1070.478 306 C 1071.277 295.825, 1072.616 278.500, 1073.454 267.500 C 1074.293 256.500, 1075.666 238.500, 1076.507 227.500 C 1077.347 216.500, 1078.685 198.725, 1079.480 188 C 1080.276 177.275, 1081.615 159.050, 1082.456 147.500 C 1083.298 135.950, 1084.442 121.100, 1084.998 114.500 C 1085.554 107.900, 1086.190 100.230, 1086.411 97.456 L 1086.813 92.412 1078.156 93.584 L 1069.500 94.755 1015.122 77.972 L 960.743 61.188 961.369 67.344 M 213 324.300 C 213 325.015, 213.386 326.028, 213.859 326.550 C 214.331 327.072, 218.429 340.028, 222.966 355.341 L 231.215 383.182 225.625 412.323 C 221.225 435.260, 220.298 441.706, 221.268 442.602 C 221.945 443.228, 348.500 516.575, 502.500 605.595 C 656.500 694.616, 834.700 797.657, 898.500 834.575 C 962.300 871.494, 1014.725 901.494, 1015 901.241 C 1015.275 900.988, 1014.393 900.043, 1013.040 899.141 C 1011.687 898.238, 1002.237 891.453, 992.040 884.061 C 981.843 876.670, 967.875 866.583, 961 861.644 C 954.125 856.706, 946.250 851.016, 943.500 849 C 940.750 846.984, 932.763 841.209, 925.750 836.167 C 918.737 831.125, 907.263 822.875, 900.250 817.833 C 893.237 812.791, 885.250 807.016, 882.500 805 C 879.750 802.984, 871.763 797.209, 864.750 792.167 C 857.738 787.125, 846.488 779.037, 839.750 774.194 C 833.013 769.351, 819.400 759.530, 809.500 752.370 C 799.600 745.210, 784.075 734.022, 775 727.508 C 765.925 720.994, 752.200 711.096, 744.500 705.511 C 736.800 699.927, 714.975 684.171, 696 670.499 C 677.025 656.827, 647.775 635.744, 631 623.649 C 614.225 611.554, 593.300 596.477, 584.500 590.145 C 575.700 583.813, 562.425 574.243, 555 568.879 C 547.575 563.514, 539.700 557.823, 537.500 556.231 C 535.300 554.640, 527.763 549.211, 520.750 544.169 C 513.737 539.126, 502.262 530.875, 495.250 525.833 C 488.238 520.791, 480.250 515.016, 477.500 513 C 474.750 510.984, 466.762 505.209, 459.750 500.167 C 452.738 495.125, 441.262 486.875, 434.250 481.833 C 427.238 476.791, 419.250 471.016, 416.500 469 C 413.750 466.984, 405.875 461.289, 399 456.345 C 392.125 451.402, 378.175 441.346, 368 434 C 357.825 426.654, 344.100 416.752, 337.500 411.998 C 330.900 407.243, 310.200 392.320, 291.500 378.836 C 272.800 365.352, 247.715 347.272, 235.756 338.660 C 223.796 330.047, 213.784 323, 213.506 323 C 213.227 323, 213 323.585, 213 324.300 M 1585.418 503.632 C 1581.063 506.764, 1575.250 510.978, 1572.500 512.996 C 1569.750 515.015, 1561.875 520.713, 1555 525.660 C 1548.125 530.606, 1535.075 539.992, 1526 546.518 C 1516.925 553.044, 1503.200 562.940, 1495.500 568.508 C 1487.800 574.077, 1474.300 583.814, 1465.500 590.146 C 1456.700 596.477, 1435.775 611.555, 1419 623.653 C 1402.225 635.750, 1366.450 661.551, 1339.500 680.990 C 1312.550 700.428, 1283.300 721.512, 1274.500 727.842 C 1265.700 734.173, 1250.400 745.210, 1240.500 752.370 C 1230.600 759.530, 1216.987 769.351, 1210.250 774.194 C 1203.513 779.037, 1192.263 787.125, 1185.250 792.167 C 1178.237 797.209, 1170.250 802.984, 1167.500 805 C 1164.750 807.016, 1156.763 812.791, 1149.750 817.833 C 1142.737 822.875, 1131.263 831.125, 1124.250 836.167 C 1117.237 841.209, 1109.250 846.984, 1106.500 849 C 1103.750 851.016, 1095.875 856.704, 1089 861.639 C 1082.125 866.574, 1068.400 876.481, 1058.500 883.655 C 1048.600 890.829, 1039.263 897.493, 1037.750 898.464 C 1036.237 899.435, 1035 900.603, 1035 901.060 C 1035 901.516, 1045.285 895.952, 1057.855 888.695 C 1070.426 881.438, 1204.018 804.187, 1354.726 717.027 L 1628.742 558.554 1618.808 552.380 C 1613.344 548.985, 1608.676 546.009, 1608.434 545.767 C 1608.192 545.525, 1605.021 535.016, 1601.387 522.414 C 1597.753 509.811, 1594.456 499.148, 1594.059 498.718 C 1593.662 498.289, 1589.774 500.500, 1585.418 503.632 M 148.152 868.180 C 148.814 871.128, 155.463 880.262, 174.813 904.804 L 200.592 937.500 200.189 942.900 L 199.787 948.299 219.143 947.598 C 229.790 947.212, 246.150 946.468, 255.500 945.944 C 264.850 945.420, 282.175 944.542, 294 943.991 C 305.825 943.440, 328.550 942.318, 344.500 941.498 C 360.450 940.677, 382.725 939.554, 394 939.001 C 405.275 938.448, 423.950 937.538, 435.500 936.977 C 447.050 936.417, 469.100 935.309, 484.500 934.515 C 499.900 933.721, 518.575 932.809, 526 932.489 C 533.425 932.169, 547.150 931.473, 556.500 930.943 C 565.850 930.413, 587.675 929.322, 605 928.519 C 622.325 927.715, 645.950 926.583, 657.500 926.003 C 669.050 925.423, 691.100 924.301, 706.500 923.510 C 721.900 922.719, 740.575 921.809, 748 921.489 C 755.425 921.169, 769.150 920.473, 778.500 919.943 C 787.850 919.413, 809.675 918.322, 827 917.519 C 844.325 916.715, 867.950 915.583, 879.500 915.003 C 891.050 914.422, 908.600 913.513, 918.500 912.981 C 928.400 912.450, 952.475 911.319, 972 910.468 C 991.525 909.617, 1009.525 908.575, 1012 908.153 C 1015.561 907.546, 1013.371 907.236, 1001.500 906.667 C 993.250 906.272, 978.625 905.502, 969 904.957 C 959.375 904.412, 937.325 903.293, 920 902.471 C 902.675 901.649, 874.325 900.314, 857 899.503 C 839.675 898.693, 818.075 897.590, 809 897.053 C 799.925 896.516, 786.200 895.818, 778.500 895.502 C 770.800 895.187, 756.625 894.487, 747 893.947 C 737.375 893.407, 715.437 892.298, 698.250 891.483 C 681.062 890.667, 652.937 889.335, 635.750 888.522 C 618.562 887.709, 596.850 886.598, 587.500 886.053 C 578.150 885.509, 564.200 884.803, 556.500 884.484 C 548.800 884.166, 534.625 883.469, 525 882.936 C 515.375 882.402, 493.550 881.304, 476.500 880.494 C 459.450 879.685, 431.325 878.352, 414 877.531 C 396.675 876.711, 374.625 875.580, 365 875.020 C 355.375 874.459, 336.700 873.547, 323.500 872.993 C 310.300 872.438, 296.350 871.743, 292.500 871.448 C 288.650 871.153, 271.775 870.272, 255 869.491 C 238.225 868.711, 209.875 867.394, 192 866.565 C 174.125 865.736, 156.748 864.877, 153.385 864.655 L 147.269 864.252 148.152 868.180 M 1834.917 867.389 C 1834.688 867.603, 1822.800 868.293, 1808.500 868.922 C 1794.200 869.551, 1774.625 870.499, 1765 871.028 C 1755.375 871.558, 1737.600 872.447, 1725.500 873.004 C 1713.400 873.562, 1690.450 874.685, 1674.500 875.501 C 1658.550 876.317, 1636.275 877.452, 1625 878.024 C 1613.725 878.596, 1590.325 879.720, 1573 880.522 C 1555.675 881.323, 1533.850 882.413, 1524.500 882.943 C 1515.150 883.473, 1501.425 884.169, 1494 884.489 C 1486.575 884.809, 1467.900 885.719, 1452.500 886.510 C 1437.100 887.301, 1415.050 888.418, 1403.500 888.991 C 1391.950 889.564, 1373.050 890.485, 1361.500 891.037 C 1349.950 891.589, 1327.675 892.702, 1312 893.509 C 1296.325 894.316, 1277.875 895.220, 1271 895.517 C 1264.125 895.815, 1250.625 896.506, 1241 897.053 C 1231.375 897.600, 1209.325 898.707, 1192 899.512 C 1174.675 900.317, 1151.050 901.441, 1139.500 902.008 C 1127.950 902.576, 1105.900 903.695, 1090.500 904.496 C 1075.100 905.296, 1055.975 906.275, 1048 906.671 C 1036.290 907.253, 1034.366 907.543, 1038 908.174 C 1040.475 908.605, 1058.025 909.651, 1077 910.500 C 1095.975 911.350, 1129.050 912.916, 1150.500 913.981 C 1171.950 915.046, 1203.900 916.604, 1221.500 917.442 C 1239.100 918.281, 1261.375 919.403, 1271 919.936 C 1280.625 920.469, 1294.800 921.166, 1302.500 921.484 C 1310.200 921.803, 1324.150 922.509, 1333.500 923.053 C 1342.850 923.598, 1364.450 924.702, 1381.500 925.505 C 1398.550 926.309, 1426.450 927.637, 1443.500 928.457 C 1460.550 929.278, 1482.825 930.393, 1493 930.936 C 1503.175 931.480, 1517.350 932.182, 1524.500 932.498 C 1531.650 932.813, 1549.875 933.722, 1565 934.516 C 1580.125 935.311, 1602.175 936.431, 1614 937.006 C 1625.825 937.581, 1649.450 938.707, 1666.500 939.509 C 1683.550 940.310, 1705.375 941.407, 1715 941.947 C 1724.625 942.487, 1738.800 943.187, 1746.500 943.502 C 1754.200 943.818, 1767.925 944.516, 1777 945.053 C 1786.075 945.590, 1807.675 946.693, 1825 947.503 C 1842.325 948.314, 1870.675 949.647, 1888 950.466 C 1905.325 951.286, 1927.150 952.404, 1936.500 952.951 C 1945.850 953.499, 1960.025 954.195, 1968 954.497 C 1975.975 954.800, 1985.776 955.302, 1989.780 955.612 L 1997.060 956.176 1994.865 951.659 C 1992.680 947.163, 1992.562 947.090, 1970.085 936.517 L 1947.500 925.894 1924.704 906.369 L 1901.909 886.844 1878.239 882.873 C 1865.220 880.689, 1854.512 878.812, 1854.443 878.701 C 1854.373 878.590, 1852.431 875.913, 1850.127 872.750 L 1845.937 867 1840.635 867 C 1837.719 867, 1835.146 867.175, 1834.917 867.389" stroke="none" fill="#fdfd02" fill-rule="evenodd"/><path d="M 993 928.837 C 975.675 940.295, 945.300 960.393, 925.500 973.498 C 905.700 986.603, 878.475 1004.603, 865 1013.499 C 851.525 1022.394, 827.900 1037.998, 812.500 1048.175 C 797.100 1058.351, 768.975 1076.948, 750 1089.501 C 731.025 1102.054, 703.800 1120.053, 689.500 1129.498 C 675.200 1138.943, 651.575 1154.547, 637 1164.174 C 622.425 1173.801, 595.875 1191.348, 578 1203.168 C 560.125 1214.988, 532.225 1233.438, 516 1244.169 C 499.775 1254.899, 464.900 1277.971, 438.500 1295.439 C 412.100 1312.908, 385.638 1330.406, 379.696 1334.324 C 370.010 1340.711, 369.079 1341.579, 370.696 1342.715 C 371.688 1343.412, 378.025 1348.344, 384.777 1353.675 C 391.530 1359.006, 397.268 1364.298, 397.529 1365.434 C 397.790 1366.570, 399.539 1377.081, 401.415 1388.790 L 404.827 1410.081 411.664 1417.758 C 415.424 1421.981, 421.200 1428.213, 424.500 1431.608 L 430.500 1437.779 472.617 1443.413 L 514.734 1449.047 554.453 1462.528 L 594.172 1476.008 614.164 1493.754 C 634.004 1511.365, 634.331 1511.722, 657.096 1540.647 L 680.036 1569.795 696.768 1578.769 L 713.500 1587.744 748 1594 C 766.975 1597.440, 783.175 1600.614, 784 1601.053 C 784.825 1601.492, 792.250 1609.932, 800.500 1619.809 C 814.469 1636.533, 815.947 1637.979, 822 1640.847 C 827.633 1643.516, 831.548 1644.331, 851.358 1646.961 L 874.217 1649.996 887.849 1661.748 L 901.481 1673.500 926.990 1674.044 L 952.500 1674.587 1002.500 1692.204 C 1030 1701.893, 1055.425 1710.906, 1059 1712.231 C 1063.470 1713.889, 1072.967 1719.869, 1089.405 1731.377 L 1113.311 1748.112 1125.484 1746.364 L 1137.657 1744.617 1159.913 1750.975 C 1172.154 1754.472, 1182.694 1757.333, 1183.335 1757.332 C 1183.976 1757.331, 1192.218 1754.577, 1201.652 1751.212 C 1211.086 1747.848, 1221.079 1744.793, 1223.859 1744.424 L 1228.914 1743.754 1263.389 1767.879 L 1297.864 1792.004 1339.968 1785.575 L 1382.073 1779.147 1401.557 1787.073 C 1417.489 1793.555, 1422.015 1795, 1426.383 1795 C 1430.923 1795, 1433.903 1793.963, 1446.222 1788.099 L 1460.719 1781.197 1483.308 1778.599 C 1495.732 1777.169, 1506.573 1776, 1507.399 1776 C 1508.225 1776, 1514.870 1770.600, 1522.165 1764 C 1535.091 1752.306, 1535.545 1752.002, 1539.965 1752.062 C 1542.459 1752.097, 1555.075 1753.005, 1568 1754.081 C 1580.925 1755.157, 1592.400 1756.072, 1593.500 1756.115 C 1594.600 1756.158, 1630.600 1748.922, 1673.500 1740.035 L 1751.500 1723.878 1762.347 1717.793 L 1773.194 1711.708 1797.106 1713.682 C 1814.359 1715.106, 1822.874 1715.407, 1827.680 1714.763 C 1833.073 1714.041, 1836.548 1712.644, 1845.921 1707.435 C 1855.407 1702.163, 1862.556 1696.786, 1885.468 1677.694 L 1913.437 1654.389 1925.793 1635.444 C 1932.589 1625.025, 1939.690 1613.213, 1941.574 1609.195 C 1943.458 1605.177, 1944.998 1601.127, 1944.996 1600.195 C 1944.994 1599.263, 1941.918 1582.525, 1938.161 1563 C 1932.256 1532.315, 1931.432 1526.686, 1932.080 1521.500 C 1932.493 1518.200, 1932.869 1513.799, 1932.916 1511.720 L 1933 1507.940 1895.750 1483.307 C 1875.263 1469.759, 1845.225 1449.898, 1829 1439.171 C 1812.775 1428.445, 1787.013 1411.418, 1771.750 1401.334 C 1756.487 1391.250, 1731.287 1374.600, 1715.750 1364.333 C 1700.213 1354.067, 1675.800 1337.944, 1661.500 1328.506 C 1647.200 1319.067, 1620.650 1301.518, 1602.500 1289.507 C 1584.350 1277.496, 1554.200 1257.543, 1535.500 1245.168 C 1516.800 1232.793, 1488.337 1213.968, 1472.250 1203.334 C 1456.162 1192.700, 1429.612 1175.154, 1413.250 1164.341 C 1396.887 1153.529, 1373.150 1137.850, 1360.500 1129.499 C 1347.850 1121.149, 1320.625 1103.149, 1300 1089.501 C 1279.375 1075.852, 1251.475 1057.404, 1238 1048.504 C 1224.525 1039.605, 1200.225 1023.553, 1184 1012.832 C 1167.775 1002.111, 1137.850 982.315, 1117.500 968.840 C 1097.150 955.365, 1068.409 936.354, 1053.632 926.593 C 1038.855 916.833, 1026.255 908.657, 1025.632 908.425 C 1025.009 908.193, 1010.325 917.378, 993 928.837" stroke="none" fill="#fb0404" fill-rule="evenodd"/><path d="M 754.040 29.145 L 740.580 36.259 710.469 33.127 L 680.359 29.994 638.929 42.319 L 597.500 54.644 563.411 81.072 C 544.662 95.608, 512.459 119.384, 491.848 133.908 L 454.373 160.316 440.831 179.411 L 427.290 198.505 407.395 207.444 C 396.453 212.360, 381.029 220.177, 373.121 224.815 L 358.742 233.247 313.163 222.004 C 269.230 211.168, 267.311 210.786, 260.042 211.423 C 255.894 211.787, 250.137 212.353, 247.250 212.680 L 242 213.275 242 230.621 L 242 247.967 228.426 284.233 C 220.961 304.180, 214.450 320.913, 213.958 321.418 C 213.424 321.966, 214.564 323.421, 216.782 325.024 C 218.827 326.503, 244.125 344.728, 273 365.524 C 301.875 386.320, 330.900 407.230, 337.500 411.989 C 344.100 416.749, 357.825 426.654, 368 434 C 378.175 441.346, 392.125 451.402, 399 456.345 C 405.875 461.289, 413.750 466.984, 416.500 469 C 419.250 471.016, 427.238 476.791, 434.250 481.833 C 441.263 486.875, 452.738 495.125, 459.750 500.167 C 466.763 505.209, 474.750 510.984, 477.500 513 C 480.250 515.016, 488.238 520.791, 495.250 525.833 C 502.262 530.875, 513.737 539.126, 520.750 544.169 C 527.763 549.211, 535.300 554.640, 537.500 556.231 C 539.700 557.823, 547.575 563.514, 555 568.879 C 562.425 574.243, 575.700 583.813, 584.500 590.145 C 593.300 596.477, 614.225 611.554, 631 623.649 C 647.775 635.744, 677.025 656.827, 696 670.499 C 714.975 684.171, 736.800 699.927, 744.500 705.511 C 752.200 711.096, 765.925 720.994, 775 727.508 C 784.075 734.022, 799.600 745.210, 809.500 752.370 C 819.400 759.530, 833.013 769.351, 839.750 774.194 C 846.488 779.037, 857.738 787.125, 864.750 792.167 C 871.763 797.209, 879.750 802.984, 882.500 805 C 885.250 807.016, 893.238 812.791, 900.250 817.833 C 907.263 822.875, 918.738 831.125, 925.750 836.167 C 932.763 841.209, 940.750 846.984, 943.500 849 C 946.250 851.016, 954.125 856.706, 961 861.644 C 967.875 866.583, 981.843 876.670, 992.040 884.061 C 1002.237 891.453, 1011.687 898.238, 1013.040 899.141 C 1014.393 900.043, 1015.275 900.988, 1015 901.241 C 1014.725 901.494, 857.450 810.862, 665.500 699.837 C 473.550 588.811, 294.900 485.464, 268.500 470.176 C 239.800 453.556, 220.248 442.806, 219.872 443.440 C 219.527 444.023, 218.438 449.157, 217.452 454.849 C 216.466 460.542, 214.949 466.014, 214.080 467.010 C 213.211 468.006, 198.783 480.879, 182.018 495.616 L 151.535 522.412 134.600 528.706 L 117.664 535 98.874 535 L 80.084 535 55.013 562.204 C 41.224 577.167, 28.831 591.398, 27.471 593.830 C 25.263 597.782, 25 599.415, 25 609.198 L 25 620.145 33.881 640.337 L 42.761 660.530 38.318 691.011 L 33.876 721.492 36.970 733.847 L 40.064 746.203 59.190 770.851 L 78.316 795.500 111.099 822.500 L 143.882 849.500 145.535 856.722 C 147.113 863.615, 147.333 863.967, 150.344 864.422 C 152.080 864.684, 169.475 865.610, 189 866.478 C 208.525 867.347, 238 868.708, 254.500 869.503 C 271 870.298, 292.600 871.386, 302.500 871.922 C 312.400 872.458, 326.800 873.159, 334.500 873.480 C 342.200 873.801, 356.150 874.509, 365.500 875.053 C 374.850 875.598, 396.675 876.714, 414 877.533 C 431.325 878.353, 459.450 879.685, 476.500 880.494 C 493.550 881.304, 515.375 882.402, 525 882.936 C 534.625 883.469, 548.800 884.166, 556.500 884.484 C 564.200 884.803, 578.150 885.509, 587.500 886.053 C 596.850 886.598, 618.563 887.709, 635.750 888.522 C 652.938 889.335, 681.063 890.667, 698.250 891.483 C 715.438 892.298, 737.375 893.407, 747 893.947 C 756.625 894.487, 770.800 895.187, 778.500 895.502 C 786.200 895.818, 799.925 896.516, 809 897.053 C 818.075 897.590, 839.675 898.693, 857 899.503 C 874.325 900.314, 902.675 901.649, 920 902.471 C 937.325 903.293, 959.375 904.412, 969 904.957 C 978.625 905.502, 993.250 906.272, 1001.500 906.667 C 1013.371 907.236, 1015.561 907.546, 1012 908.153 C 1009.525 908.575, 991.525 909.617, 972 910.468 C 952.475 911.319, 928.400 912.450, 918.500 912.981 C 908.600 913.513, 891.050 914.422, 879.500 915.003 C 867.950 915.583, 844.325 916.715, 827 917.519 C 809.675 918.322, 787.850 919.413, 778.500 919.943 C 769.150 920.473, 755.425 921.169, 748 921.489 C 740.575 921.809, 721.900 922.719, 706.500 923.510 C 691.100 924.301, 669.050 925.423, 657.500 926.003 C 645.950 926.583, 622.325 927.715, 605 928.519 C 587.675 929.322, 565.850 930.413, 556.500 930.943 C 547.150 931.473, 533.425 932.169, 526 932.489 C 518.575 932.809, 499.900 933.721, 484.500 934.515 C 469.100 935.309, 447.050 936.417, 435.500 936.977 C 423.950 937.538, 405.275 938.448, 394 939.001 C 382.725 939.554, 360.450 940.677, 344.500 941.498 C 328.550 942.318, 305.825 943.440, 294 943.991 C 282.175 944.542, 264.850 945.420, 255.500 945.944 C 246.150 946.468, 229.850 947.209, 219.279 947.592 L 200.058 948.289 199.779 960.895 L 199.500 973.500 225.145 999.500 L 250.789 1025.500 251.879 1061.413 L 252.969 1097.325 244.985 1132.691 C 240.593 1152.143, 237.004 1168.832, 237.008 1169.779 C 237.012 1170.725, 245.958 1191.735, 256.887 1216.467 L 276.759 1261.434 320.629 1294.098 L 364.500 1326.761 366.606 1333.131 C 367.764 1336.634, 368.477 1339.914, 368.192 1340.420 C 367.906 1340.926, 368.429 1341.049, 369.355 1340.694 C 370.281 1340.339, 378.117 1335.380, 386.769 1329.675 C 395.421 1323.970, 420.725 1307.236, 443 1292.488 C 465.275 1277.740, 497.450 1256.445, 514.500 1245.166 C 531.550 1233.887, 560.125 1214.988, 578 1203.168 C 595.875 1191.348, 622.313 1173.875, 636.750 1164.339 C 651.188 1154.802, 674.813 1139.198, 689.250 1129.662 C 703.688 1120.127, 731.025 1102.054, 750 1089.501 C 768.975 1076.948, 797.100 1058.351, 812.500 1048.175 C 827.900 1037.998, 851.525 1022.394, 865 1013.499 C 878.475 1004.603, 905.700 986.604, 925.500 973.499 C 945.300 960.395, 975.450 940.435, 992.500 929.145 C 1009.550 917.855, 1024.175 908.617, 1025 908.615 C 1025.825 908.614, 1038.650 916.651, 1053.500 926.476 C 1068.350 936.301, 1097.150 955.365, 1117.500 968.840 C 1137.850 982.315, 1167.775 1002.111, 1184 1012.832 C 1200.225 1023.553, 1224.525 1039.605, 1238 1048.504 C 1251.475 1057.404, 1279.375 1075.852, 1300 1089.501 C 1320.625 1103.149, 1347.850 1121.149, 1360.500 1129.499 C 1373.150 1137.850, 1396.888 1153.529, 1413.250 1164.341 C 1429.612 1175.154, 1456.162 1192.700, 1472.250 1203.334 C 1488.338 1213.968, 1516.800 1232.793, 1535.500 1245.168 C 1554.200 1257.543, 1584.350 1277.496, 1602.500 1289.507 C 1620.650 1301.518, 1647.200 1319.067, 1661.500 1328.506 C 1675.800 1337.944, 1700.212 1354.067, 1715.750 1364.333 C 1731.287 1374.600, 1756.487 1391.250, 1771.750 1401.334 C 1787.013 1411.418, 1812.775 1428.445, 1829 1439.171 C 1845.225 1449.898, 1875.316 1469.794, 1895.869 1483.385 C 1916.421 1496.976, 1933.339 1507.962, 1933.463 1507.798 C 1933.587 1507.634, 1935.263 1492.809, 1937.187 1474.853 L 1940.685 1442.206 1931.978 1400.620 L 1923.270 1359.034 1926.044 1343.267 C 1927.569 1334.595, 1931.560 1313.550, 1934.912 1296.500 C 1939.540 1272.960, 1943.460 1256.836, 1951.204 1229.500 L 1961.402 1193.500 1975.356 1176.500 C 1983.031 1167.150, 1989.870 1158.825, 1990.553 1158 C 1991.321 1157.073, 1992.555 1147.457, 1993.779 1132.848 C 1994.869 1119.839, 1996.023 1108.771, 1996.344 1108.253 C 1996.664 1107.734, 2003.243 1102.938, 2010.963 1097.596 L 2025 1087.882 2024.987 1068.191 C 2024.979 1057.299, 2024.092 1038.051, 2023.002 1025.116 L 2021.031 1001.733 2009.986 980.518 C 2003.912 968.849, 1998.375 958.527, 1997.681 957.579 C 1996.579 956.072, 1992.664 955.682, 1966.461 954.470 C 1949.982 953.708, 1932.675 952.824, 1928 952.506 C 1923.325 952.188, 1905.325 951.264, 1888 950.452 C 1870.675 949.641, 1842.325 948.314, 1825 947.503 C 1807.675 946.693, 1786.075 945.590, 1777 945.053 C 1767.925 944.516, 1754.200 943.818, 1746.500 943.502 C 1738.800 943.187, 1724.625 942.487, 1715 941.947 C 1705.375 941.407, 1683.550 940.310, 1666.500 939.509 C 1649.450 938.707, 1625.825 937.581, 1614 937.006 C 1602.175 936.431, 1580.125 935.311, 1565 934.516 C 1549.875 933.722, 1531.650 932.813, 1524.500 932.498 C 1517.350 932.182, 1503.175 931.480, 1493 930.936 C 1482.825 930.393, 1460.550 929.278, 1443.500 928.457 C 1426.450 927.637, 1398.550 926.309, 1381.500 925.505 C 1364.450 924.702, 1342.850 923.598, 1333.500 923.053 C 1324.150 922.509, 1310.200 921.803, 1302.500 921.484 C 1294.800 921.166, 1280.625 920.469, 1271 919.936 C 1261.375 919.403, 1239.100 918.281, 1221.500 917.442 C 1203.900 916.604, 1171.950 915.046, 1150.500 913.981 C 1129.050 912.916, 1095.975 911.350, 1077 910.500 C 1058.025 909.651, 1040.475 908.605, 1038 908.174 C 1034.366 907.543, 1036.290 907.253, 1048 906.671 C 1055.975 906.275, 1075.100 905.296, 1090.500 904.496 C 1105.900 903.695, 1127.950 902.576, 1139.500 902.008 C 1151.050 901.441, 1174.675 900.317, 1192 899.512 C 1209.325 898.707, 1231.375 897.600, 1241 897.053 C 1250.625 896.506, 1264.125 895.815, 1271 895.517 C 1277.875 895.220, 1296.325 894.316, 1312 893.509 C 1327.675 892.702, 1349.950 891.589, 1361.500 891.037 C 1373.050 890.485, 1391.950 889.564, 1403.500 888.991 C 1415.050 888.418, 1437.100 887.301, 1452.500 886.510 C 1467.900 885.719, 1486.575 884.809, 1494 884.489 C 1501.425 884.169, 1515.150 883.473, 1524.500 882.943 C 1533.850 882.413, 1555.675 881.323, 1573 880.522 C 1590.325 879.720, 1613.725 878.596, 1625 878.024 C 1636.275 877.452, 1658.550 876.316, 1674.500 875.500 C 1690.450 874.683, 1713.625 873.567, 1726 873.020 C 1738.375 872.472, 1751.650 871.791, 1755.500 871.505 C 1759.350 871.219, 1777.943 870.290, 1796.818 869.440 C 1815.693 868.589, 1834.424 867.580, 1838.443 867.197 L 1845.749 866.500 1825.624 838.379 C 1809.754 816.202, 1794.932 797.528, 1755.500 750.028 L 1705.500 689.798 1697.026 673.649 L 1688.552 657.500 1686.947 639 L 1685.341 620.500 1666.719 595.500 L 1648.096 570.500 1638.682 564.750 C 1633.504 561.587, 1628.974 559, 1628.615 559 C 1628.256 559, 1504.108 630.628, 1352.731 718.174 C 1201.354 805.720, 1067.938 882.872, 1056.250 889.623 C 1044.563 896.374, 1035 901.523, 1035 901.064 C 1035 900.605, 1036.237 899.435, 1037.750 898.464 C 1039.263 897.493, 1048.600 890.829, 1058.500 883.655 C 1068.400 876.481, 1082.125 866.574, 1089 861.639 C 1095.875 856.704, 1103.750 851.016, 1106.500 849 C 1109.250 846.984, 1117.237 841.209, 1124.250 836.167 C 1131.263 831.125, 1142.737 822.875, 1149.750 817.833 C 1156.763 812.791, 1164.750 807.016, 1167.500 805 C 1170.250 802.984, 1178.237 797.209, 1185.250 792.167 C 1192.263 787.125, 1203.513 779.037, 1210.250 774.194 C 1216.987 769.351, 1230.600 759.530, 1240.500 752.370 C 1250.400 745.210, 1265.700 734.173, 1274.500 727.842 C 1283.300 721.512, 1312.550 700.428, 1339.500 680.990 C 1366.450 661.551, 1402.225 635.750, 1419 623.653 C 1435.775 611.555, 1456.700 596.477, 1465.500 590.146 C 1474.300 583.814, 1487.800 574.077, 1495.500 568.508 C 1503.200 562.940, 1516.925 553.044, 1526 546.518 C 1535.075 539.992, 1548.125 530.606, 1555 525.660 C 1561.875 520.713, 1569.750 515.021, 1572.500 513.010 C 1575.250 510.999, 1580.875 506.944, 1585 503.998 C 1589.125 501.051, 1592.868 498.331, 1593.318 497.953 C 1593.768 497.574, 1592.789 492.592, 1591.143 486.882 L 1588.151 476.500 1587.876 430 L 1587.601 383.500 1580.371 359.676 C 1573.370 336.606, 1572.887 335.434, 1565.138 322.676 C 1560.736 315.429, 1550.862 299.210, 1543.196 286.634 L 1529.256 263.767 1500.878 232.780 L 1472.500 201.792 1441 182.991 L 1409.500 164.189 1381.119 156.572 C 1365.509 152.383, 1352.457 148.783, 1352.116 148.572 C 1351.774 148.360, 1346.160 148.586, 1339.641 149.072 L 1327.788 149.957 1280.922 124.969 L 1234.055 99.981 1216.777 102.420 L 1199.500 104.859 1188 99.982 C 1177.814 95.662, 1173.829 94.623, 1153.128 90.886 L 1129.756 86.668 1108.628 89.442 C 1097.008 90.968, 1087.322 92.383, 1087.105 92.586 C 1086.888 92.790, 1086.534 95.328, 1086.317 98.228 C 1086.101 101.128, 1085.488 108.675, 1084.955 115 C 1084.422 121.325, 1083.298 135.950, 1082.456 147.500 C 1081.615 159.050, 1080.276 177.275, 1079.480 188 C 1078.685 198.725, 1077.347 216.500, 1076.507 227.500 C 1075.666 238.500, 1074.293 256.500, 1073.454 267.500 C 1072.616 278.500, 1071.277 295.825, 1070.478 306 C 1069.680 316.175, 1068.567 331.250, 1068.004 339.500 C 1067.441 347.750, 1066.746 356.750, 1066.459 359.500 C 1066.172 362.250, 1065.260 373.950, 1064.432 385.500 C 1063.604 397.050, 1062.282 415.500, 1061.495 426.500 C 1060.707 437.500, 1059.816 448.750, 1059.515 451.500 C 1059.213 454.250, 1058.312 465.725, 1057.513 477 C 1056.713 488.275, 1055.137 509.650, 1054.009 524.500 C 1052.881 539.350, 1051.307 560.500, 1050.511 571.500 C 1049.715 582.500, 1048.828 593.750, 1048.541 596.500 C 1048.255 599.250, 1047.558 608.250, 1046.994 616.500 C 1046.429 624.750, 1045.307 640.050, 1044.499 650.500 C 1043.691 660.950, 1042.557 675.575, 1041.979 683 C 1041.400 690.425, 1040.276 705.725, 1039.480 717 C 1038.685 728.275, 1037.786 739.750, 1037.484 742.500 C 1037.181 745.250, 1036.285 756.725, 1035.491 768 C 1034.698 779.275, 1033.374 797.725, 1032.549 809 C 1031.724 820.275, 1030.802 831.975, 1030.500 835 C 1030.199 838.025, 1029.271 849.950, 1028.438 861.500 C 1027.606 873.050, 1026.650 886.212, 1026.314 890.750 C 1025.978 895.287, 1025.387 899, 1025 899 C 1024.613 899, 1024.022 895.287, 1023.686 890.750 C 1023.350 886.212, 1022.394 873.050, 1021.562 861.500 C 1020.729 849.950, 1019.801 838.025, 1019.500 835 C 1019.198 831.975, 1018.276 820.275, 1017.451 809 C 1016.626 797.725, 1015.302 779.275, 1014.509 768 C 1013.715 756.725, 1012.819 745.250, 1012.516 742.500 C 1012.214 739.750, 1011.315 728.275, 1010.520 717 C 1009.724 705.725, 1008.600 690.425, 1008.021 683 C 1007.443 675.575, 1006.309 660.950, 1005.501 650.500 C 1004.693 640.050, 1003.571 624.750, 1003.006 616.500 C 1002.442 608.250, 1001.745 599.250, 1001.459 596.500 C 1001.172 593.750, 1000.285 582.500, 999.489 571.500 C 998.693 560.500, 997.119 539.350, 995.991 524.500 C 994.863 509.650, 993.287 488.275, 992.487 477 C 991.688 465.725, 990.787 454.250, 990.485 451.500 C 990.184 448.750, 989.260 437.050, 988.432 425.500 C 987.604 413.950, 986.276 395.725, 985.480 385 C 984.685 374.275, 983.347 356.500, 982.507 345.500 C 981.666 334.500, 980.293 316.500, 979.454 305.500 C 978.616 294.500, 977.288 277.175, 976.504 267 C 975.719 256.825, 974.813 244.450, 974.490 239.500 C 974.167 234.550, 973.470 225.550, 972.941 219.500 C 972.412 213.450, 971.308 199.275, 970.489 188 C 969.670 176.725, 968.329 158.050, 967.510 146.500 C 966.691 134.950, 965.795 123.700, 965.519 121.500 C 965.243 119.300, 964.338 107.600, 963.507 95.500 C 962.676 83.400, 961.716 70.747, 961.373 67.381 L 960.751 61.263 949.161 57.670 C 942.786 55.693, 937.330 54.452, 937.035 54.912 C 936.741 55.372, 926.600 58.392, 914.500 61.624 L 892.500 67.500 862.893 64.500 L 833.286 61.500 804.893 41.764 C 778.245 23.240, 776.223 22.027, 772 22.029 C 768.352 22.031, 764.952 23.378, 754.040 29.145" stroke="none" fill="#346cfb" fill-rule="evenodd"/></svg>