<svg xmlns="http://www.w3.org/2000/svg" viewBox="0 0 32 32">
  <!-- La Réunion unofficial flag - Volcano with sun rays -->
  <rect width="32" height="32" fill="#005BAA"/>
  
  <!-- Sun rays -->
  <g fill="#FFD700">
    <polygon points="16,2 17.5,8 14.5,8"/>
    <polygon points="16,2 19,7 13,7" transform="rotate(30 16 16)"/>
    <polygon points="16,2 19,7 13,7" transform="rotate(60 16 16)"/>
    <polygon points="16,2 19,7 13,7" transform="rotate(90 16 16)"/>
    <polygon points="16,2 19,7 13,7" transform="rotate(120 16 16)"/>
    <polygon points="16,2 19,7 13,7" transform="rotate(150 16 16)"/>
    <polygon points="16,2 19,7 13,7" transform="rotate(180 16 16)"/>
    <polygon points="16,2 19,7 13,7" transform="rotate(210 16 16)"/>
    <polygon points="16,2 19,7 13,7" transform="rotate(240 16 16)"/>
    <polygon points="16,2 19,7 13,7" transform="rotate(270 16 16)"/>
    <polygon points="16,2 19,7 13,7" transform="rotate(300 16 16)"/>
    <polygon points="16,2 19,7 13,7" transform="rotate(330 16 16)"/>
  </g>
  
  <!-- Sun center -->
  <circle cx="16" cy="16" r="5" fill="#FFD700"/>
  
  <!-- Volcano / Piton de la Fournaise -->
  <path d="M0 32 L8 18 L12 22 L16 16 L20 22 L24 18 L32 32 Z" fill="#228B22"/>
  
  <!-- Volcano peak -->
  <path d="M13 24 L16 18 L19 24 Z" fill="#8B4513"/>
  <ellipse cx="16" cy="18" rx="2" ry="1" fill="#FF4500"/>
</svg>
